<?xml version="1.0" standalone="no"?>
<!DOCTYPE svg PUBLIC "-//W3C//DTD SVG 20010904//EN"
 "http://www.w3.org/TR/2001/REC-SVG-20010904/DTD/svg10.dtd">
<svg version="1.0" xmlns="http://www.w3.org/2000/svg"
 width="400.000000pt" height="400.000000pt" viewBox="0 0 300.000000 300.000000"
 preserveAspectRatio="xMidYMid meet">

<g transform="translate(-30.000000,310.000000) scale(0.120000,-0.120000)"
fill="#000000" stroke="none">
<path d="M822 2264 c-276 -284 -304 -317 -304 -360 0 -54 28 -76 99 -81 32 -3
64 -6 70 -8 7 -3 -51 -81 -137 -184 -82 -98 -152 -191 -156 -205 -8 -35 12
-81 42 -95 14 -6 49 -11 79 -11 30 0 55 -4 55 -8 0 -4 -66 -86 -146 -182 -80
-96 -151 -185 -156 -197 -14 -28 6 -79 36 -96 14 -8 108 -14 301 -17 l280 -5
5 -153 5 -154 33 -29 c26 -24 41 -29 82 -29 41 0 56 5 82 29 l33 29 5 154 5
153 288 5 c289 5 289 5 308 29 11 13 19 39 19 60 0 33 -16 56 -150 216 -82 99
-150 183 -150 188 0 4 27 7 59 7 76 0 121 32 121 86 0 29 -22 59 -150 214 -82
99 -150 184 -150 190 0 5 22 10 49 10 27 0 61 4 76 10 34 13 59 69 46 104 -8
20 -199 228 -406 443 -85 87 -74 92 -273 -113z"/>
<path d="M1827 2269 c-92 -96 -180 -188 -193 -206 -25 -31 -25 -32 -10 -78 9
-25 16 -61 16 -79 0 -47 -26 -116 -56 -147 l-25 -26 85 -102 c107 -127 116
-144 116 -226 0 -58 -4 -72 -35 -120 l-35 -55 47 -57 c26 -32 66 -81 89 -110
24 -29 48 -69 53 -90 6 -21 11 -132 11 -247 l0 -208 34 -34 c30 -30 40 -34 85
-34 42 0 56 5 83 29 l33 29 5 154 5 153 288 5 c289 5 289 5 308 29 11 13 19
39 19 60 0 33 -16 56 -150 216 -82 99 -150 183 -150 188 0 4 27 7 59 7 76 0
121 32 121 86 0 29 -21 59 -150 213 -82 99 -150 185 -150 191 0 5 22 10 49 10
27 0 61 4 76 10 34 13 59 69 46 103 -8 21 -247 282 -410 449 -80 81 -72 85
-264 -113z"/>
</g>
</svg>
